<mxfile host="65bd71144e">
    <diagram id="ZLXJHvl7LFzMpM4PqMH_" name="Page-1">
        <mxGraphModel dx="1063" dy="588" grid="1" gridSize="10" guides="1" tooltips="1" connect="1" arrows="1" fold="1" page="1" pageScale="1" pageWidth="850" pageHeight="1100" math="0" shadow="0">
            <root>
                <mxCell id="0"/>
                <mxCell id="1" parent="0"/>
                <mxCell id="5" value="Program" style="swimlane;fontStyle=0;childLayout=stackLayout;horizontal=1;startSize=30;horizontalStack=0;resizeParent=1;resizeParentMax=0;resizeLast=0;collapsible=1;marginBottom=0;whiteSpace=wrap;html=1;" parent="1" vertex="1">
                    <mxGeometry x="525" y="40" width="140" height="180" as="geometry"/>
                </mxCell>
                <mxCell id="29" value="- Main (args)" style="text;align=left;verticalAlign=middle;spacingLeft=4;spacingRight=4;overflow=hidden;points=[[0,0.5],[1,0.5]];portConstraint=eastwest;rotatable=0;whiteSpace=wrap;html=1;" parent="5" vertex="1">
                    <mxGeometry y="30" width="140" height="30" as="geometry"/>
                </mxCell>
                <mxCell id="6" value="- scripture" style="text;align=left;verticalAlign=middle;spacingLeft=4;spacingRight=4;overflow=hidden;points=[[0,0.5],[1,0.5]];portConstraint=eastwest;rotatable=0;whiteSpace=wrap;html=1;" parent="5" vertex="1">
                    <mxGeometry y="60" width="140" height="30" as="geometry"/>
                </mxCell>
                <mxCell id="7" value="- difficulty&lt;br&gt;- shuffle&lt;br&gt;- run ()" style="text;strokeColor=none;fillColor=none;align=left;verticalAlign=middle;spacingLeft=4;spacingRight=4;overflow=hidden;points=[[0,0.5],[1,0.5]];portConstraint=eastwest;rotatable=0;whiteSpace=wrap;html=1;" parent="5" vertex="1">
                    <mxGeometry y="90" width="140" height="90" as="geometry"/>
                </mxCell>
                <mxCell id="11" value="Verse" style="swimlane;fontStyle=0;childLayout=stackLayout;horizontal=1;startSize=30;horizontalStack=0;resizeParent=1;resizeParentMax=0;resizeLast=0;collapsible=1;marginBottom=0;whiteSpace=wrap;html=1;" parent="1" vertex="1">
                    <mxGeometry x="510" y="250" width="170" height="210" as="geometry"/>
                </mxCell>
                <mxCell id="12" value="- reference" style="text;strokeColor=none;fillColor=none;align=left;verticalAlign=middle;spacingLeft=4;spacingRight=4;overflow=hidden;points=[[0,0.5],[1,0.5]];portConstraint=eastwest;rotatable=0;whiteSpace=wrap;html=1;" parent="11" vertex="1">
                    <mxGeometry y="30" width="170" height="30" as="geometry"/>
                </mxCell>
                <mxCell id="13" value="- words: List" style="text;strokeColor=none;fillColor=none;align=left;verticalAlign=middle;spacingLeft=4;spacingRight=4;overflow=hidden;points=[[0,0.5],[1,0.5]];portConstraint=eastwest;rotatable=0;whiteSpace=wrap;html=1;" parent="11" vertex="1">
                    <mxGeometry y="60" width="170" height="30" as="geometry"/>
                </mxCell>
                <mxCell id="25" value="+ HideRandomWords (int numWordsToHide)&lt;br&gt;+ ShuffleWords ()" style="text;strokeColor=none;fillColor=none;align=left;verticalAlign=middle;spacingLeft=4;spacingRight=4;overflow=hidden;points=[[0,0.5],[1,0.5]];portConstraint=eastwest;rotatable=0;whiteSpace=wrap;html=1;" parent="11" vertex="1">
                    <mxGeometry y="90" width="170" height="120" as="geometry"/>
                </mxCell>
                <mxCell id="15" value="Scripture" style="swimlane;fontStyle=0;childLayout=stackLayout;horizontal=1;startSize=30;horizontalStack=0;resizeParent=1;resizeParentMax=0;resizeLast=0;collapsible=1;marginBottom=0;whiteSpace=wrap;html=1;rounded=0;glass=0;" parent="1" vertex="1">
                    <mxGeometry x="309" y="250" width="170" height="240" as="geometry">
                        <mxRectangle x="340" y="70" width="90" height="30" as="alternateBounds"/>
                    </mxGeometry>
                </mxCell>
                <mxCell id="16" value="- reference: String" style="text;strokeColor=none;fillColor=none;align=left;verticalAlign=middle;spacingLeft=4;spacingRight=4;overflow=hidden;points=[[0,0.5],[1,0.5]];portConstraint=eastwest;rotatable=0;whiteSpace=wrap;html=1;" parent="15" vertex="1">
                    <mxGeometry y="30" width="170" height="30" as="geometry"/>
                </mxCell>
                <mxCell id="17" value="- verse: List" style="text;strokeColor=none;fillColor=none;align=left;verticalAlign=middle;spacingLeft=4;spacingRight=4;overflow=hidden;points=[[0,0.5],[1,0.5]];portConstraint=eastwest;rotatable=0;whiteSpace=wrap;html=1;" parent="15" vertex="1">
                    <mxGeometry y="60" width="170" height="30" as="geometry"/>
                </mxCell>
                <mxCell id="18" value="+ GetVerses (): List&lt;br&gt;+ GetReference (): string&lt;br&gt;+ Scripture (string_ref, string_text)&lt;br&gt;&lt;br&gt;+ IsFullyHidden (): bool" style="text;strokeColor=none;fillColor=none;align=left;verticalAlign=middle;spacingLeft=4;spacingRight=4;overflow=hidden;points=[[0,0.5],[1,0.5]];portConstraint=eastwest;rotatable=0;whiteSpace=wrap;html=1;" parent="15" vertex="1">
                    <mxGeometry y="90" width="170" height="150" as="geometry"/>
                </mxCell>
                <mxCell id="19" value="&lt;h1 style=&quot;&quot;&gt;&lt;font style=&quot;font-size: 18px;&quot;&gt;Description of how the program should work:&lt;/font&gt;&lt;/h1&gt;&lt;p style=&quot;font-size: 13px;&quot;&gt;&lt;font style=&quot;font-size: 13px;&quot;&gt;&lt;span style=&quot;background-color: initial;&quot;&gt;1. The `Program` class is responsible for managing the flow&lt;br&gt;of the program.&lt;/span&gt;&lt;br&gt;&lt;/font&gt;&lt;/p&gt;&lt;p style=&quot;font-size: 13px;&quot; class=&quot;MsoNormal&quot;&gt;&lt;/p&gt;&lt;p style=&quot;font-size: 13px;&quot; class=&quot;MsoNormal&quot;&gt;&lt;font style=&quot;font-size: 13px;&quot;&gt;2. When starts, creates a list of `Scripture` objects by reading text files in directory.&lt;/font&gt;&lt;/p&gt;&lt;p style=&quot;font-size: 13px;&quot; class=&quot;MsoNormal&quot;&gt;&lt;font style=&quot;font-size: 13px;&quot;&gt;3. Prompts user to select file and reads&lt;br&gt;the selected file to create a `Scripture` object for each passage in the file.&lt;/font&gt;&lt;/p&gt;&lt;p style=&quot;font-size: 13px;&quot; class=&quot;MsoNormal&quot;&gt;&lt;font style=&quot;font-size: 13px;&quot;&gt;4. After the `Scripture` objects,&amp;nbsp;&lt;br&gt;prompts user select difficulty and determines the number of words to hide based on the selected level.&lt;/font&gt;&lt;/p&gt;&lt;p style=&quot;font-size: 13px;&quot; class=&quot;MsoNormal&quot;&gt;&lt;font style=&quot;font-size: 13px;&quot;&gt;5. The program enters a loop that repeatedly selects a random `Scripture` object.&lt;/font&gt;&lt;/p&gt;&lt;p style=&quot;font-size: 13px;&quot; class=&quot;MsoNormal&quot;&gt;&lt;font style=&quot;font-size: 13px;&quot;&gt;6. For each `Scripture` object, the program shuffles the words in each verse (if the user requested it) and prompts the user to guess&lt;br&gt;the hidden words.&lt;/font&gt;&lt;/p&gt;&lt;p style=&quot;font-size: 13px;&quot; class=&quot;MsoNormal&quot;&gt;&lt;font style=&quot;font-size: 13px;&quot;&gt;7. The user can choose to quit, shuffle the words again, or hide additional words.&lt;/font&gt;&lt;/p&gt;&lt;p style=&quot;font-size: 13px;&quot; class=&quot;MsoNormal&quot;&gt;&lt;font style=&quot;font-size: 13px;&quot;&gt;8. If the user guesses all the hidden words in a `Scripture` object, the program congratulates the user and prompts them to proceed to the&lt;br&gt;next verse or quit.&lt;/font&gt;&lt;/p&gt;&lt;p style=&quot;font-size: 11px;&quot;&gt;&lt;font style=&quot;font-size: 11px;&quot;&gt;&lt;br&gt;&lt;br&gt;&lt;br&gt;&lt;br&gt;&lt;br&gt;&lt;br&gt;&lt;br&gt;&lt;br&gt;&lt;br&gt;&lt;br&gt;&lt;br&gt;&lt;br&gt;&lt;br&gt;&lt;br&gt;&lt;br&gt;&lt;br&gt;&lt;br&gt;&lt;br&gt;&lt;/font&gt;&lt;/p&gt;&lt;p style=&quot;font-size: 11px;&quot; class=&quot;MsoNormal&quot;&gt;&lt;font style=&quot;font-size: 11px;&quot;&gt;9. The loop continues until the user quits.&lt;/font&gt;&lt;/p&gt;" style="text;html=1;strokeColor=none;fillColor=none;spacing=5;spacingTop=-20;whiteSpace=wrap;overflow=hidden;rounded=0;glass=0;labelBackgroundColor=none;" parent="1" vertex="1">
                    <mxGeometry y="10" width="290" height="560" as="geometry"/>
                </mxCell>
                <mxCell id="30" value="Word" style="swimlane;fontStyle=0;childLayout=stackLayout;horizontal=1;startSize=30;horizontalStack=0;resizeParent=1;resizeParentMax=0;resizeLast=0;collapsible=1;marginBottom=0;whiteSpace=wrap;html=1;rounded=0;glass=0;labelBackgroundColor=none;fontSize=12;" parent="1" vertex="1">
                    <mxGeometry x="710" y="250" width="140" height="200" as="geometry"/>
                </mxCell>
                <mxCell id="31" value="&lt;font style=&quot;font-size: 12px;&quot;&gt;- text: String&lt;br&gt;- hidden: Bool&lt;br&gt;&lt;/font&gt;" style="text;strokeColor=none;fillColor=none;align=left;verticalAlign=middle;spacingLeft=4;spacingRight=4;overflow=hidden;points=[[0,0.5],[1,0.5]];portConstraint=eastwest;rotatable=0;whiteSpace=wrap;html=1;rounded=0;glass=0;labelBackgroundColor=none;fontSize=14;" parent="30" vertex="1">
                    <mxGeometry y="30" width="140" height="40" as="geometry"/>
                </mxCell>
                <mxCell id="32" value="&lt;font style=&quot;font-size: 12px;&quot;&gt;+ Word (string)&lt;br&gt;+ GetValue (): string&lt;br&gt;+ IsHidden (): bool&lt;br&gt;- Hide ()&lt;br&gt;- Reveal ()&lt;br&gt;&lt;/font&gt;" style="text;strokeColor=none;fillColor=none;align=left;verticalAlign=middle;spacingLeft=4;spacingRight=4;overflow=hidden;points=[[0,0.5],[1,0.5]];portConstraint=eastwest;rotatable=0;whiteSpace=wrap;html=1;rounded=0;glass=0;labelBackgroundColor=none;fontSize=14;" parent="30" vertex="1">
                    <mxGeometry y="70" width="140" height="130" as="geometry"/>
                </mxCell>
                <mxCell id="34" value="graph TD;&#10;    Program--&gt;LoadFiles--&gt;SelectFile--&gt;LoadScripture--&gt;SelectLevel--&gt;ShuffleWords--&gt;GuessWord--&gt;HideWord--&gt;AllHidden--&gt;NextScripture--&gt;AllDone--&gt;EndProgram;&#10;    DisplayVerse--&gt;LoadFiles;&#10;    DisplayVerse--&gt;AllHidden;&#10;    AllDone--&gt;NextScripture;" style="shadow=0;dashed=0;align=left;strokeWidth=1;shape=mxgraph.mermaid.abstract.mermaid;labelBackgroundColor=#ffffff;noLabel=1;theme=default;rounded=0;glass=0;fontSize=14;fillColor=#03071D;" parent="1" vertex="1">
                    <mxGeometry x="620" width="830" height="700" as="geometry"/>
                </mxCell>
            </root>
        </mxGraphModel>
    </diagram>
</mxfile>